<svg id="Layer_1" data-name="Layer 1" xmlns="http://www.w3.org/2000/svg" viewBox="0 0 126.25 163.66"><path d="M239.25,170.27A29.76,29.76,0,0,0,232.16,160a43,43,0,0,0-11.31-7.5q-6.69-3.14-15.19-6.17l-.5-.18-.31-33.27a59.11,59.11,0,0,1,11.32,1.54,51.81,51.81,0,0,1,12.93,4.89l6.58-17.7a61.66,61.66,0,0,0-13.8-5.32,69.56,69.56,0,0,0-17.2-2.3l-.14-14.44-15.67.14L189,95.26a39.75,39.75,0,0,0-17.63,8.21q-11.16,9.34-11,25.6a30.19,30.19,0,0,0,2.81,13.29,30.65,30.65,0,0,0,7.17,9.44,40.14,40.14,0,0,0,10.27,6.56c2.91,1.32,5.93,2.53,9,3.68l.24,25.5a92.9,92.9,0,0,1-.67,12.51,53.15,53.15,0,0,1-11.59-2.15,73.83,73.83,0,0,1-12.67-5.07l-6.23,17.87a51.09,51.09,0,0,0,5.56,2.63,75,75,0,0,0,8.24,2.78,86.64,86.64,0,0,0,10.3,2.13c-.34.45-.7.89-1.06,1.3q-8.34,9.42-26.08,9.58a49.6,49.6,0,0,1-11.08-1.05,48.63,48.63,0,0,1-9.24-2.91,41.56,41.56,0,0,1-7.3-4,59,59,0,0,1-5.23-4L115.56,230a32.5,32.5,0,0,0,5.46,4.1,49.49,49.49,0,0,0,8.91,4.3,81.11,81.11,0,0,0,12.26,3.46,71.63,71.63,0,0,0,15.22,1.36q14.07-.13,23.36-4.25a37.27,37.27,0,0,0,14.88-11.44,40.85,40.85,0,0,0,4.95-8.42q19.47-.85,29.94-9.11,11.42-9,11.27-25.26A38.38,38.38,0,0,0,239.25,170.27ZM184.88,133.6a13.43,13.43,0,0,1-1.7-6.81A12,12,0,0,1,188,116.54c.38-.28.78-.55,1.19-.8l.21,22.77A16.74,16.74,0,0,1,184.88,133.6Zm29,62.58a20.46,20.46,0,0,1-8.78,3.43,104.24,104.24,0,0,0,.44-10.6l-.2-21a40.7,40.7,0,0,1,6.68,3.86,19,19,0,0,1,5.24,5.57,14.63,14.63,0,0,1,1.88,7.42Q219.24,192.16,213.9,196.18Z" transform="translate(-115.56 -79.51)"/></svg>